<svg width="82" height="79" viewBox="0 0 82 79" fill="none" xmlns="http://www.w3.org/2000/svg">
<g clip-path="url(#clip0_56_41)">
<path d="M27.834 41.0715C27.834 39.0725 29.5685 37.7907 31.2295 37.7907C33.0773 37.7907 33.9455 39.0177 33.9455 39.9596C33.9455 40.6014 33.6058 41.1659 32.9093 41.1866C32.2129 41.2074 32.0222 40.6014 32.0222 40.6014L32.1543 40.5637C32.1732 40.6581 32.2865 40.7336 32.4563 40.7336C32.7772 40.7336 32.9641 40.4504 32.9641 40.1484C32.9641 39.6199 32.4167 38.9611 31.2861 38.9611C30.5689 38.9611 29.4383 39.4896 29.4383 40.828C29.4383 42.1663 30.5897 42.9025 31.7391 42.9025C34.0776 42.9025 34.927 40.4693 34.927 39.6199C34.927 38.1494 34.5118 36.7525 32.4375 36.7525H31.2314C29.0816 36.7525 28.5531 35.6199 28.5531 35.6199L29.2703 34.0928L29.3836 34.1306C29.3081 34.4892 29.5723 35.3934 31.3824 35.3934H32.4941C35.9255 35.3934 36.6238 36.996 36.6238 39.2216V42.6175C36.6238 43.7878 37.3958 44.0879 37.3958 44.0879V44.1634H34.491V44.0879C34.491 44.0879 34.9251 43.7859 34.9251 42.6175V41.6C34.6986 42.693 33.7738 44.2597 31.4541 44.2597C29.1344 44.2597 27.834 42.6382 27.834 41.0715Z" fill="white"/>
<path d="M39.5663 42.6194V37.0376C39.5663 35.8672 38.9057 35.5671 38.9057 35.5671V35.4916H41.2631V38.3778C41.4311 37.4151 42.2993 35.3972 44.1848 35.3972C47.5804 35.3972 47.4482 40.1692 44.5435 40.1692C43.2977 40.1692 43.1675 39.2442 43.1675 39.2442L43.3374 39.1876C43.3751 39.3198 43.5639 39.5274 43.9225 39.5274C45.4117 39.5274 45.6382 36.9998 43.696 36.9998C41.9237 36.9998 41.2631 39.584 41.2631 40.1692V42.6212C41.2631 43.7916 42.0162 44.0917 42.0162 44.0917V44.1672H38.7905V44.0917C38.7905 44.0917 39.5644 43.7897 39.5644 42.6212L39.5663 42.6194Z" fill="white"/>
<path d="M50.2041 42.2418V36.8092H48.0166V35.5841H50.2041V34.4515C50.2041 32.7148 49.3548 32.6035 49.3548 32.6035V32.528L52.6559 31.9617V32.0372C52.6559 32.0372 51.9028 32.1504 51.9028 33.8852V35.5822H54.0904V36.8073H51.9028V42.2399C51.9028 43.7859 52.8447 44.0879 52.8447 44.0879V44.1634H49.3548V44.0879C49.3548 44.0879 50.2041 43.7859 50.2041 42.2399V42.2418Z" fill="white"/>
<path d="M30.835 73.2974H50.6003V72.4026H42.7353V56.9655H38.6999V72.4026H30.835V73.2974Z" fill="white"/>
<path d="M6.65137 47.5933L16.534 64.7124L17.3079 64.265L13.3763 57.4525L26.7432 49.7339L24.7274 46.2399L11.3587 53.9585L7.42522 47.1459L6.65137 47.5933Z" fill="white"/>
<path d="M16.8172 13.7968L6.93457 30.9159L7.70842 31.3633L11.6419 24.5507L25.0087 32.2693L27.0264 28.7753L13.6576 21.0567L17.5911 14.2442L16.8172 13.7968Z" fill="white"/>
<path d="M51.1647 5.70258H31.3994V6.59732H39.2663V22.0345H43.2997V6.59732H51.1647V5.70258Z" fill="white"/>
<path d="M75.3487 31.4048L65.466 14.2857L64.6922 14.7331L68.6237 21.5456L55.2568 29.2642L57.2726 32.7582L70.6414 25.0396L74.5748 31.8522L75.3487 31.4048Z" fill="white"/>
<path d="M31.6014 56.0103C29.8196 53.5941 26.8639 51.6838 23.7742 53.4639C23.7742 53.4639 23.7742 53.4639 23.7704 53.4658C23.5458 53.5941 23.3382 53.7508 23.1438 53.9283C23.0853 53.9792 23.0286 54.034 22.9739 54.0906C22.2227 54.857 21.7018 55.9613 21.3337 57.1656C21.3035 57.2656 21.2752 57.3638 21.2469 57.4638C21.2054 57.6167 21.1657 57.7677 21.1261 57.9206C21.1072 57.9961 21.0902 58.0698 21.0732 58.1453C21.0638 58.1755 21.0581 58.2 21.0525 58.2283C21.0336 58.3038 21.0166 58.3793 21.0015 58.4567C20.9921 58.4869 20.9883 58.5096 20.9845 58.536C20.9751 58.5757 20.9675 58.6191 20.9581 58.6587C20.9506 58.6965 20.943 58.7361 20.9336 58.7739C20.9185 58.8531 20.9015 58.9324 20.8883 59.0136C20.8713 59.1099 20.8524 59.208 20.8354 59.3043V59.3081C20.8071 59.461 20.7826 59.6139 20.7599 59.7649C20.641 60.5237 20.5636 61.2523 20.5051 61.8998C20.4353 62.7228 20.3617 63.5421 20.2012 64.3179C20.1993 64.3405 20.1956 64.3594 20.1899 64.3802C20.188 64.4009 20.1824 64.4217 20.1767 64.4425C20.1692 64.484 20.1578 64.5274 20.1484 64.5689C20.1484 64.5803 20.1446 64.5916 20.139 64.6048C20.1257 64.6633 20.1106 64.7218 20.0955 64.7804C20.0861 64.82 20.0748 64.8596 20.0635 64.8993C20.0597 64.9144 20.0559 64.9295 20.054 64.9446C20.0502 64.9597 20.0465 64.9748 20.0427 64.9899C19.6765 66.2357 19.0008 67.3381 17.6268 68.129L17.6211 68.1328C15.6525 69.2673 13.4498 68.8879 12.4948 67.2286C11.6209 65.711 11.7021 63.6402 12.408 61.5487L11.9399 61.258L11.8738 61.1447C10.4979 63.174 10.53 65.7015 12.0984 68.4292C14.1727 72.0308 17.3644 73.1483 20.456 71.3682L20.4636 71.3645C20.7108 71.2229 20.9373 71.0681 21.1487 70.9058C21.2337 70.8416 21.3167 70.7736 21.3941 70.7057C21.9528 70.2262 22.3888 69.6731 22.7285 69.0729C22.7776 68.9879 22.8229 68.903 22.8682 68.8143C22.9475 68.6632 23.0173 68.5122 23.0834 68.3593C23.106 68.3065 23.1268 68.2574 23.1475 68.2045C23.2683 67.912 23.3703 67.6099 23.4571 67.3079C23.4835 67.2154 23.5099 67.1191 23.5326 67.0267C23.5835 66.836 23.6269 66.6472 23.6666 66.4547C23.6873 66.3565 23.7062 66.2622 23.7232 66.1659C23.7402 66.0677 23.7572 65.9733 23.7723 65.8771C23.7893 65.7808 23.8044 65.6845 23.8176 65.5902C23.9403 64.7256 23.995 63.8724 24.0384 63.089C24.0686 62.7021 24.1082 62.3283 24.1592 61.9696C24.1988 61.6997 24.246 61.4411 24.297 61.19C24.4518 60.4331 24.665 59.7554 24.9368 59.1571C24.9972 59.023 25.0595 58.8984 25.1275 58.7739C25.2898 58.4681 25.4729 58.1906 25.671 57.9357C26.7299 57.192 27.8378 56.739 28.808 56.739C29.9216 56.7371 30.7653 56.9504 31.3617 57.3996C31.5429 57.6318 31.7184 57.8942 31.8902 58.1906C32.2752 58.8569 32.4545 59.7422 32.4564 60.72C32.3847 61.4581 32.1242 62.1829 31.6844 62.887C31.6108 63.006 31.5316 63.123 31.4485 63.2438C31.0654 63.778 30.586 64.3009 30.0084 64.8143C29.8178 64.9842 29.6158 65.1541 29.4025 65.3221C29.1175 65.5467 28.8136 65.7676 28.4947 65.9866C27.8378 66.4169 27.1263 66.8907 26.4392 67.4287C26.3637 67.4872 26.2864 67.5476 26.2127 67.6118C26.1372 67.6722 26.0636 67.7364 25.9862 67.7987C25.9126 67.861 25.839 67.9252 25.7654 67.9912C25.6201 68.1215 25.4766 68.2536 25.337 68.3933C25.2671 68.4613 25.1973 68.5311 25.1312 68.5991C24.9142 68.8256 24.7028 69.0634 24.5103 69.3164C24.4763 69.3598 24.4423 69.4032 24.4083 69.4485C24.3083 69.5825 24.2121 69.7203 24.1215 69.8638C24.0667 69.9468 24.0176 70.028 23.9667 70.113C23.6175 70.7076 23.357 71.3626 23.2193 72.0856C23.2004 72.1875 23.1815 72.2913 23.1702 72.3989C23.1362 72.6632 23.1154 72.9369 23.1154 73.2219V73.2314C23.1192 76.8009 25.6843 79.0057 29.8404 79C32.9868 78.9962 35.1913 77.7598 36.2615 75.5532H36.1313L35.6443 75.2927C34.1872 76.95 32.4338 78.0562 30.6841 78.0581C28.7683 78.06 27.3395 76.3422 27.3377 74.0695V74.0638C27.3358 72.4782 27.953 71.3418 28.8476 70.4018C28.8589 70.3904 28.8703 70.381 28.8797 70.3697C28.891 70.3602 28.9024 70.3508 28.9118 70.3395C28.9401 70.3093 28.9684 70.2791 28.9986 70.2508C29.042 70.2073 29.0854 70.1658 29.1288 70.1243C29.1383 70.113 29.1458 70.1054 29.1553 70.0979C29.1855 70.0695 29.2176 70.0393 29.2515 70.011C29.2666 69.9959 29.2817 69.9808 29.2987 69.9676C29.3138 69.9525 29.3289 69.9393 29.3459 69.9261C29.9367 69.3957 30.6105 68.9219 31.2881 68.4518C31.8203 68.0781 32.413 67.6458 33.0113 67.1645C33.1302 67.0682 33.251 66.9719 33.3699 66.8719H33.3718C33.4473 66.8058 33.5247 66.7416 33.5983 66.6793C33.6606 66.6265 33.7229 66.5736 33.7833 66.5208C33.8116 66.4943 33.8418 66.4679 33.8701 66.4434C33.9003 66.4151 33.9324 66.3867 33.9626 66.3584C33.9852 66.3414 34.0022 66.3263 34.0211 66.3037H34.023C34.0815 66.2508 34.1381 66.1999 34.1947 66.1451C34.2174 66.1262 34.2363 66.1074 34.2551 66.0866H34.257C34.3137 66.0338 34.3684 65.9828 34.425 65.928C34.5383 65.8167 34.6496 65.7091 34.7591 65.5958C34.8308 65.5203 34.9025 65.4467 34.9743 65.3693C35.833 64.4481 36.5276 63.4439 36.8164 62.4114C36.8391 62.3358 36.8579 62.2585 36.873 62.183C36.9297 61.9262 36.9599 61.6676 36.9599 61.409V61.4052C36.9561 58.1453 34.3363 56.5238 31.6071 56.0141L31.6014 56.0103Z" fill="#FF6915"/>
<path d="M13.0497 46.406C13.1912 46.4626 13.3366 46.5155 13.4819 46.5702H13.4857C13.5782 46.6061 13.6725 46.6382 13.765 46.6703C13.8424 46.6986 13.9198 46.725 13.9953 46.7514C14.0312 46.7628 14.0689 46.776 14.1067 46.7873C14.1463 46.7986 14.1878 46.8137 14.2275 46.825C14.2539 46.8345 14.2746 46.842 14.3029 46.8496C14.3766 46.876 14.4502 46.8987 14.5257 46.9213C14.554 46.9308 14.5785 46.9383 14.6068 46.944C14.6804 46.9685 14.7522 46.9893 14.8277 47.0119C14.9805 47.0535 15.1297 47.0969 15.2825 47.1346C15.3826 47.1592 15.4826 47.1837 15.5845 47.2082C16.8114 47.4914 18.0269 47.5914 19.0669 47.3234C19.1442 47.3045 19.2197 47.2837 19.2934 47.2573C19.5444 47.178 19.7822 47.0761 20.0068 46.9459L20.0106 46.944C22.8323 45.3112 22.9267 42.2305 22.0018 39.6123C23.2041 36.862 23.3778 33.3453 20.2937 31.5615H20.2899C20.0653 31.4294 19.8275 31.3274 19.5765 31.2482C19.5029 31.2236 19.4274 31.2029 19.35 31.1821C18.31 30.9159 17.0945 31.016 15.8676 31.2972C15.7657 31.3218 15.6657 31.3463 15.5656 31.3709H15.5638C15.4109 31.4086 15.2618 31.4501 15.1089 31.4936C15.0334 31.5162 14.9617 31.537 14.8881 31.5596C14.8597 31.5672 14.8352 31.5766 14.8069 31.5842C14.7314 31.6068 14.6578 31.6295 14.5842 31.654C14.5559 31.6616 14.5332 31.6691 14.5087 31.6804C14.469 31.6918 14.4275 31.7069 14.3879 31.7182C14.352 31.7295 14.3143 31.7427 14.2765 31.7541C14.201 31.7805 14.1236 31.8069 14.0463 31.8352C13.9557 31.8673 13.8613 31.9013 13.7669 31.9353H13.7631C13.6178 31.99 13.4725 32.0448 13.3309 32.0995C12.6156 32.3751 11.9436 32.6733 11.3548 32.9471C10.6073 33.2982 9.86179 33.6455 9.1087 33.8928H9.10682C9.08605 33.9003 9.06718 33.906 9.04642 33.9116C9.02566 33.9211 9.00489 33.9249 8.98413 33.9305C8.94261 33.9437 8.90108 33.9569 8.86145 33.9702C8.85201 33.9739 8.8388 33.9777 8.82559 33.9796C8.76896 33.9966 8.71045 34.0136 8.65194 34.0287C8.61231 34.04 8.57267 34.0494 8.53303 34.0608C8.51793 34.0645 8.50283 34.0683 8.48962 34.0721C8.47452 34.0759 8.45942 34.0796 8.44432 34.0834C7.18162 34.3873 5.89061 34.3552 4.51844 33.5605L4.51278 33.5568C2.54606 32.4185 1.7741 30.3213 2.73292 28.664C3.61058 27.1482 5.44329 26.1836 7.60819 25.7494L7.62517 25.1983L7.69123 25.085C5.24511 24.9076 3.07266 26.1987 1.49664 28.9226C-0.585208 32.5186 0.0414236 35.8427 3.13117 37.6303L3.13872 37.6341C3.38597 37.7757 3.63134 37.8965 3.8786 37.9984C3.97674 38.0399 4.07678 38.0777 4.17493 38.1117C4.8695 38.3552 5.56597 38.4552 6.25678 38.4514C6.35492 38.4514 6.45118 38.4477 6.54933 38.442C6.7192 38.4344 6.88529 38.4212 7.05139 38.4005C7.10801 38.3929 7.16275 38.3873 7.21748 38.3778C7.53269 38.3363 7.84412 38.274 8.14799 38.1985C8.24237 38.1758 8.33674 38.1494 8.42922 38.123C8.61986 38.072 8.80482 38.0135 8.99168 37.9531C9.08605 37.9229 9.17854 37.8908 9.26914 37.8587C9.36162 37.8247 9.45411 37.7926 9.5447 37.7568C9.6353 37.7247 9.72779 37.6888 9.81649 37.653C10.6262 37.3283 11.3925 36.947 12.0928 36.594C12.4419 36.4279 12.7854 36.275 13.1214 36.141C13.3743 36.0409 13.6216 35.9503 13.8651 35.871C14.5974 35.6275 15.292 35.4727 15.945 35.4085C16.0904 35.3953 16.2319 35.3859 16.3716 35.3821C16.7189 35.3708 17.053 35.3878 17.3738 35.435C18.544 35.9805 19.4896 36.711 19.9747 37.551C20.5334 38.5156 20.7712 39.3537 20.6787 40.0937C20.5674 40.3674 20.4296 40.6505 20.2578 40.9469C19.8747 41.6114 19.2009 42.2079 18.3572 42.6986C17.6815 43.0082 16.9208 43.1441 16.0866 43.1158C15.9469 43.112 15.8054 43.1026 15.66 43.0894C15.007 43.0252 14.3124 42.8723 13.5801 42.6269C13.3385 42.5457 13.0893 42.4551 12.8364 42.357C12.5004 42.223 12.1569 42.0701 11.8077 41.9039C11.1075 41.551 10.3412 41.1715 9.53149 40.845C9.44278 40.8091 9.35218 40.7732 9.2597 40.7412C9.1691 40.7053 9.07662 40.6732 8.98413 40.6392C8.89353 40.6071 8.80105 40.575 8.70668 40.5448C8.52171 40.4844 8.33485 40.4259 8.14422 40.375C8.05173 40.3485 7.95548 40.3221 7.86299 40.2994C7.55911 40.2239 7.2458 40.1616 6.93248 40.1201C6.87774 40.1126 6.82301 40.105 6.76639 40.0975C6.60029 40.0786 6.4342 40.0635 6.26433 40.0559C6.16618 40.0503 6.06992 40.0484 5.97177 40.0465C5.28097 40.0408 4.5845 40.1428 3.88992 40.3863C3.79177 40.4203 3.69363 40.458 3.59359 40.4995C3.34634 40.6015 3.09908 40.7223 2.85371 40.8639L2.84617 40.8676C-0.241693 42.6552 -0.868324 45.9794 1.21164 49.5754C2.78954 52.2992 4.96199 53.5904 7.40623 53.4129L7.34017 53.2997L7.32318 52.7485C5.16017 52.3143 3.32558 51.3497 2.44791 49.834C1.48909 48.1766 2.26106 46.0794 4.22777 44.9412L4.23344 44.9374C5.60561 44.1427 6.89662 44.1087 8.15932 44.4145C8.17442 44.4183 8.18952 44.4221 8.20462 44.4258C8.21783 44.4315 8.23293 44.4353 8.24803 44.4391H8.24992C8.28767 44.4485 8.32919 44.4579 8.36883 44.4693C8.42734 44.4844 8.48585 44.5014 8.54247 44.5183C8.55568 44.5202 8.56889 44.524 8.57833 44.5278C8.61797 44.5391 8.66138 44.5523 8.70102 44.5674C8.72178 44.5731 8.74254 44.5787 8.7633 44.5863C8.78406 44.592 8.80294 44.5976 8.8237 44.6071C9.57679 44.8543 10.3223 45.1998 11.0698 45.5509C11.6586 45.8246 12.3306 46.1228 13.0459 46.3984L13.0497 46.406Z" fill="#FF6915"/>
<path d="M50.4004 22.9897C52.1822 25.4059 55.1379 27.3143 58.2258 25.5342C58.2258 25.5342 58.2258 25.5342 58.2296 25.5323C58.4542 25.404 58.6618 25.2473 58.8562 25.0699C58.9147 25.0189 58.9713 24.9642 59.0261 24.9075C59.7773 24.1411 60.2982 23.0369 60.6663 21.8326C60.6965 21.7325 60.7248 21.6343 60.7531 21.5343C60.7946 21.3814 60.8342 21.2304 60.8739 21.0775C60.8927 21.002 60.9097 20.9284 60.9267 20.8529C60.9362 20.8227 60.9418 20.7981 60.9475 20.7698C60.9664 20.6943 60.9833 20.6188 60.9984 20.5414C61.0079 20.5112 61.0117 20.4885 61.0154 20.4621C61.0249 20.4225 61.0324 20.3791 61.0419 20.3394C61.0494 20.3017 61.057 20.262 61.0664 20.2243C61.0815 20.145 61.0985 20.0657 61.1117 19.9845C61.1287 19.8883 61.1476 19.7901 61.1645 19.6938V19.6901C61.1929 19.5372 61.2174 19.3843 61.24 19.2333C61.3589 18.4744 61.4363 17.7458 61.4948 17.0983C61.5647 16.2753 61.6383 15.4561 61.7987 14.6803H61.8006C61.8025 14.6576 61.8063 14.6387 61.8119 14.618C61.8138 14.5972 61.8195 14.5764 61.8251 14.5557C61.8327 14.5141 61.844 14.4707 61.8535 14.4292C61.8535 14.4179 61.8572 14.4065 61.8629 14.3933C61.8761 14.3348 61.8912 14.2763 61.9063 14.2178C61.9157 14.1781 61.9271 14.1385 61.9384 14.0989C61.9422 14.0838 61.9459 14.0687 61.9478 14.0536C61.9516 14.0384 61.9554 14.0233 61.9592 14.0082C62.3253 12.7624 63.001 11.66 64.3751 10.8691L64.3807 10.8653C66.3493 9.73084 68.552 10.1103 69.507 11.7695C70.3809 13.2872 70.2998 15.3579 69.5939 17.4494L70.062 17.7401L70.128 17.8534C71.504 15.8242 71.4719 13.2966 69.9034 10.569C67.8291 6.96732 64.6374 5.84983 61.5458 7.62988L61.5383 7.63366C61.291 7.77523 61.0645 7.93002 60.8531 8.09236C60.7682 8.15654 60.6851 8.22449 60.6077 8.29245C60.0491 8.77191 59.6131 9.32499 59.2733 9.92526C59.2242 10.0102 59.1789 10.0952 59.1336 10.1839C59.0544 10.3349 58.9845 10.4859 58.9185 10.6388C58.8958 10.6916 58.8751 10.7407 58.8543 10.7936C58.7335 11.0862 58.6316 11.3882 58.5448 11.6902C58.5183 11.7827 58.4919 11.879 58.4693 11.9715C58.4183 12.1621 58.3749 12.3509 58.3353 12.5434C58.3145 12.6416 58.2956 12.736 58.2786 12.8322C58.2616 12.9304 58.2447 13.0248 58.2296 13.1211C58.2126 13.2173 58.1975 13.3136 58.1843 13.408C58.0616 14.2725 58.0068 15.1257 57.9634 15.9091C57.9332 16.2961 57.8936 16.6698 57.8426 17.0285C57.803 17.2984 57.7558 17.557 57.7049 17.8081C57.5501 18.565 57.3368 19.2427 57.065 19.8411C57.0046 19.9751 56.9423 20.0997 56.8744 20.2243C56.7102 20.5301 56.529 20.8113 56.3289 21.0662C55.2719 21.808 54.164 22.261 53.1939 22.261C52.0822 22.2629 51.2404 22.0515 50.6439 21.6041C50.4608 21.3701 50.2834 21.1077 50.1117 20.8076C49.7266 20.1412 49.5473 19.2578 49.5454 18.28C49.6172 17.5419 49.8776 16.8171 50.3174 16.113C50.391 15.9941 50.4703 15.877 50.5533 15.7562C50.9365 15.222 51.4159 14.6991 51.9934 14.1857C52.1841 14.0158 52.386 13.8459 52.5993 13.6779C52.8843 13.4533 53.1882 13.2324 53.5072 13.0135C54.164 12.5831 54.8756 12.1093 55.5626 11.5713C55.6381 11.5128 55.7155 11.4524 55.7891 11.3882C55.8646 11.3278 55.9382 11.2636 56.0156 11.2013C56.0892 11.139 56.1628 11.0748 56.2364 11.0088C56.3818 10.8785 56.5252 10.7464 56.6649 10.6067C56.7347 10.5387 56.8045 10.4708 56.8706 10.401C57.0877 10.1744 57.2991 9.93659 57.4916 9.68364C57.5255 9.64023 57.5595 9.59681 57.5935 9.55151C57.6935 9.41749 57.7898 9.27969 57.8804 9.13623C57.9351 9.05317 57.9842 8.972 58.0352 8.88706C58.3843 8.29245 58.6448 7.63743 58.7826 6.91446C58.8015 6.81253 58.8203 6.70871 58.8317 6.60111C58.8656 6.33684 58.8864 6.06313 58.8864 5.7781V5.76866C58.8826 2.201 56.3176 -0.00377046 52.1614 4.84065e-06C49.0151 0.00378014 46.8105 1.24019 45.7403 3.44685H45.8706L46.3575 3.70735C47.8146 2.04999 49.5681 0.943829 51.3177 0.941942C53.2335 0.940054 54.6623 2.65781 54.6642 4.93054V4.93621C54.6661 6.52183 54.0489 7.6582 53.1542 8.59825C53.1429 8.60957 53.1316 8.6209 53.1221 8.63034C53.1108 8.63977 53.0995 8.64921 53.0901 8.66054C53.0617 8.69074 53.0334 8.72094 53.0032 8.74926C52.9598 8.79267 52.9164 8.8342 52.873 8.87573C52.8636 8.88706 52.856 8.89461 52.8466 8.90216C52.8164 8.93047 52.7843 8.96067 52.7503 8.98899C52.7352 9.00409 52.7201 9.01919 52.7031 9.0324C52.688 9.04751 52.6729 9.06072 52.6559 9.07393C52.0652 9.60436 51.3914 10.0782 50.7138 10.5482C50.1815 10.9219 49.5888 11.3542 48.9905 11.8356C48.8716 11.9318 48.7508 12.0281 48.6319 12.1281H48.63C48.5545 12.1942 48.4771 12.2584 48.4035 12.3207C48.3412 12.3735 48.279 12.4264 48.2186 12.4793C48.1902 12.5057 48.16 12.5321 48.1317 12.5566C48.1015 12.585 48.0695 12.6133 48.0393 12.6416C48.0166 12.6586 47.9996 12.6737 47.9807 12.6963H47.9789C47.9203 12.7492 47.8637 12.8002 47.8071 12.8549C47.7844 12.8738 47.7656 12.8926 47.7467 12.9134H47.7448C47.6882 12.9663 47.6335 13.0172 47.5768 13.072C47.4636 13.1833 47.3522 13.2909 47.2428 13.4042C47.171 13.4797 47.0993 13.5533 47.0276 13.6307C46.1688 14.5519 45.4742 15.5561 45.1854 16.5887C45.1628 16.6642 45.1439 16.7416 45.1288 16.8171C45.0722 17.0738 45.042 17.3324 45.042 17.591V17.5948C45.0458 20.8547 47.6674 22.4762 50.3967 22.9859L50.4004 22.9897Z" fill="#FF6915"/>
<path d="M37.3769 16.5924C37.0881 15.558 36.3935 14.5557 35.5347 13.6345C35.463 13.559 35.3913 13.4854 35.3196 13.4099C35.2082 13.2947 35.0987 13.1852 34.9855 13.0757C34.9289 13.021 34.8741 12.97 34.8175 12.9172H34.8156C34.7967 12.8945 34.776 12.8775 34.7552 12.8587C34.6986 12.8039 34.642 12.753 34.5835 12.7001H34.5816C34.5627 12.6775 34.5438 12.6624 34.5231 12.6454C34.4929 12.6171 34.4608 12.5887 34.4306 12.5604C34.4023 12.534 34.3721 12.5076 34.3438 12.483C34.2834 12.4302 34.223 12.3773 34.1588 12.3245C34.0852 12.2622 34.0097 12.1961 33.9323 12.1338H33.9304C33.8115 12.0319 33.6907 11.9337 33.5718 11.8393C32.9754 11.358 32.3808 10.9257 31.8486 10.552C31.171 10.0801 30.4971 9.60625 29.9064 9.0796C29.8894 9.0645 29.8743 9.05128 29.8592 9.03618C29.8422 9.02297 29.8271 9.00787 29.812 8.99276C29.7799 8.96445 29.7459 8.93425 29.7157 8.90593C29.7063 8.90027 29.6988 8.89083 29.6893 8.87951C29.6459 8.83798 29.6025 8.79645 29.5591 8.75303C29.5289 8.72472 29.5006 8.69452 29.4723 8.6662C29.4609 8.65299 29.4496 8.64166 29.4402 8.63411C29.4289 8.62279 29.4175 8.61146 29.4081 8.60202C28.5134 7.66197 27.8962 6.52561 27.8981 4.93998V4.93432C27.9 2.66159 29.3288 0.943829 31.2446 0.945717C32.9942 0.947605 34.7477 2.05377 36.2048 3.71112L36.6917 3.45063H36.822C35.7537 1.24019 33.5491 0.00378014 30.4028 4.84065e-06C26.2485 -0.00377046 23.6835 2.201 23.6778 5.76866V5.7781C23.6778 6.06313 23.6967 6.33684 23.7325 6.60111C23.7458 6.70682 23.7627 6.81253 23.7816 6.91446C23.9175 7.63743 24.1799 8.29245 24.529 8.88706C24.5781 8.972 24.6291 9.05506 24.6838 9.13623C24.7744 9.27969 24.8707 9.4156 24.9707 9.55151C25.0047 9.59681 25.0387 9.64023 25.0726 9.68364C25.2652 9.9347 25.4765 10.1744 25.6936 10.401C25.7615 10.4708 25.8295 10.5406 25.8993 10.6067C26.039 10.7464 26.1824 10.8785 26.3278 11.0088C26.4014 11.0767 26.475 11.139 26.5486 11.2013C26.6241 11.2636 26.6977 11.3278 26.7751 11.3882C26.8487 11.4505 26.9242 11.5128 27.0016 11.5713C27.6886 12.1093 28.4002 12.5831 29.057 13.0135C29.376 13.2324 29.6799 13.4552 29.9649 13.6779C30.1782 13.8478 30.3801 14.0177 30.5708 14.1857C31.1483 14.6991 31.6277 15.222 32.0109 15.7562C32.0958 15.8751 32.1732 15.9922 32.2468 16.113C32.4299 16.4074 32.5809 16.7057 32.7017 17.0058C32.8149 18.2932 32.6545 19.4787 32.1694 20.3187C31.6145 21.2832 31.0086 21.9062 30.3235 22.1988C30.0309 22.2403 29.7139 22.261 29.3703 22.261C28.6022 22.261 27.7471 21.976 26.8997 21.489C26.2957 21.0586 25.7974 20.4678 25.4067 19.7354C25.3406 19.6108 25.2784 19.4862 25.2161 19.3522C24.9443 18.7538 24.731 18.0761 24.5762 17.3192C24.5253 17.0681 24.48 16.8095 24.4384 16.5396C24.3875 16.1809 24.3479 15.8072 24.3177 15.4202C24.2724 14.6368 24.2195 13.7836 24.0968 12.9191C24.0836 12.8247 24.0685 12.7284 24.0515 12.6322C24.0364 12.5359 24.0194 12.4396 24.0024 12.3433C23.9855 12.2471 23.9666 12.1527 23.9458 12.0545C23.9062 11.8639 23.8628 11.6732 23.8118 11.4826C23.7892 11.3882 23.7627 11.2938 23.7363 11.2013C23.6495 10.9012 23.5476 10.5992 23.4268 10.3047C23.406 10.2537 23.3853 10.2027 23.3626 10.1499C23.2965 9.99511 23.2248 9.84409 23.1474 9.69497C23.104 9.60625 23.0568 9.52131 23.0078 9.43636C22.668 8.83609 22.232 8.28301 21.6733 7.80355C21.5941 7.73559 21.5129 7.66763 21.428 7.60346C21.2166 7.44112 20.9882 7.28633 20.7428 7.14476L20.7353 7.14098C17.6437 5.36093 14.452 6.4803 12.3777 10.0801C10.8073 12.8077 10.7752 15.3353 12.1531 17.3645L12.2191 17.2512L12.6872 16.9605C11.9813 14.869 11.9002 12.7983 12.774 11.2806C13.7291 9.61946 15.9317 9.24193 17.9003 10.3764L17.906 10.3802C19.2801 11.1711 19.9558 12.2735 20.3219 13.5193C20.3257 13.5344 20.3295 13.5495 20.3333 13.5647C20.3351 13.5779 20.3389 13.593 20.3427 13.6081C20.3521 13.6477 20.3653 13.6873 20.3748 13.727C20.3899 13.7855 20.405 13.844 20.4182 13.9025C20.4239 13.9158 20.4257 13.9271 20.4276 13.9384C20.4371 13.978 20.4465 14.0215 20.4559 14.0649C20.4616 14.0856 20.4673 14.1064 20.4692 14.1272C20.4748 14.1479 20.4786 14.1668 20.4805 14.1895C20.6428 14.9653 20.7164 15.7864 20.7844 16.6094C20.841 17.2569 20.9203 17.9874 21.0392 18.7444C21.0618 18.8954 21.0864 19.0483 21.1147 19.2012V19.2049C21.1316 19.3031 21.1505 19.4013 21.1675 19.4956C21.1807 19.5768 21.1977 19.6561 21.2128 19.7354C21.2204 19.7731 21.2279 19.8128 21.2373 19.8505C21.2468 19.8902 21.2543 19.9336 21.2638 19.9732C21.2675 20.0015 21.2732 20.0242 21.2808 20.0506C21.2959 20.1299 21.3128 20.2035 21.3317 20.2809C21.3374 20.3092 21.343 20.3356 21.3525 20.3621C21.3695 20.4395 21.3865 20.5112 21.4053 20.5886C21.445 20.7415 21.4827 20.8925 21.5261 21.0454C21.5544 21.1454 21.5827 21.2436 21.6129 21.3437C21.981 22.548 22.5038 23.6504 23.2531 24.4186C23.3079 24.4753 23.3645 24.53 23.423 24.581C23.6174 24.7584 23.825 24.9132 24.0496 25.0434L24.0534 25.0453C26.8789 26.6725 29.5931 25.2133 31.3993 23.1029C34.3815 22.7669 37.5128 21.1624 37.5165 17.5967V17.5929C37.5165 17.3343 37.4863 17.0757 37.4297 16.819C37.4146 16.7435 37.3958 16.6661 37.3731 16.5906L37.3769 16.5924Z" fill="#FF6915"/>
<path d="M69.7826 61.745L69.3145 62.0357C70.0204 64.1272 70.1015 66.198 69.2277 67.7157C68.2726 69.3768 66.07 69.7543 64.1014 68.6198L64.0957 68.6161C62.7216 67.8251 62.0459 66.7228 61.6798 65.4769C61.676 65.4618 61.6722 65.4467 61.6684 65.4316C61.6666 65.4184 61.6628 65.4033 61.659 65.3882H61.6571C61.6477 65.3485 61.6345 65.3089 61.625 65.2693C61.6099 65.2107 61.5948 65.1522 61.5816 65.0937C61.576 65.0805 61.5741 65.0692 61.5722 65.0578C61.5627 65.0182 61.5533 64.9748 61.5439 64.9314C61.5382 64.9106 61.5325 64.8898 61.5307 64.8691C61.525 64.8483 61.5212 64.8294 61.5193 64.8068H61.5174C61.3551 64.031 61.2815 63.2098 61.2136 62.3868C61.1569 61.7394 61.0777 61.0088 60.9588 60.2519C60.9361 60.1009 60.9116 59.948 60.8833 59.7951V59.7913C60.8663 59.6931 60.8474 59.595 60.8304 59.5006C60.8172 59.4194 60.8002 59.3402 60.7851 59.2609C60.7776 59.2231 60.77 59.1835 60.7606 59.1457C60.7511 59.1061 60.7436 59.0627 60.7342 59.023C60.7304 58.9947 60.7247 58.9721 60.7172 58.9456C60.7021 58.8664 60.6851 58.7927 60.6662 58.7153C60.6606 58.687 60.6549 58.6606 60.6454 58.6342C60.6285 58.5568 60.6115 58.4851 60.5926 58.4077C60.553 58.2548 60.5152 58.1037 60.4718 57.9508H60.4699C60.4416 57.8508 60.4133 57.7526 60.3831 57.6526C60.015 56.4483 59.4922 55.3459 58.7429 54.5776C58.6882 54.521 58.6315 54.4662 58.573 54.4153C58.3786 54.2378 58.171 54.0831 57.9464 53.9528L57.9426 53.9509C55.1171 52.3238 52.403 53.7829 50.5967 55.8933C47.6145 56.2293 44.4833 57.8357 44.4795 61.3977V61.4015C44.4795 61.6601 44.5097 61.9187 44.5663 62.1754C44.5814 62.2509 44.6003 62.3283 44.6229 62.4038C44.9117 63.4382 45.6063 64.4406 46.4651 65.3618C46.5368 65.4373 46.6085 65.5109 46.6803 65.5864C46.7916 65.7015 46.9011 65.811 47.0143 65.9205C47.071 65.9752 47.1257 66.0262 47.1823 66.0791H47.1842C47.2031 66.1017 47.2238 66.1187 47.2446 66.1376C47.3012 66.1923 47.3578 66.2433 47.4164 66.2961H47.4182C47.4371 66.3188 47.456 66.3339 47.4768 66.3509C47.507 66.3792 47.539 66.4075 47.5692 66.4358C47.5975 66.4623 47.6277 66.4887 47.6561 66.5132C47.7165 66.5661 47.7769 66.6189 47.841 66.6718C47.9146 66.7341 47.9901 66.8001 48.0675 66.8624H48.0694C48.1883 66.9644 48.3091 67.0625 48.428 67.1569C49.0245 67.6383 49.619 68.0705 50.1513 68.4443C50.8289 68.9162 51.5027 69.39 52.0934 69.9167C52.1104 69.9318 52.1255 69.945 52.1406 69.9601C52.1576 69.9733 52.1727 69.9884 52.1878 70.0035C52.2199 70.0318 52.2539 70.062 52.2841 70.0903C52.2935 70.096 52.3011 70.1054 52.3105 70.1167C52.3539 70.1583 52.3973 70.1998 52.4407 70.2432C52.4709 70.2715 52.4992 70.3017 52.5276 70.33C52.5389 70.3433 52.5502 70.3546 52.5596 70.3621C52.571 70.3735 52.5823 70.3829 52.5917 70.3942C53.4864 71.3343 54.1036 72.4706 54.1017 74.0563V74.0619C54.0998 76.3347 52.671 78.0524 50.7552 78.0505C49.0056 78.0486 47.2521 76.9425 45.795 75.2851L45.3081 75.5456H45.1778C46.2461 77.7523 48.4507 78.9887 51.5989 78.9925C55.7532 78.9962 58.3182 76.7915 58.3239 73.2238V73.2144C58.3239 72.9293 58.305 72.6556 58.2692 72.3914C58.2559 72.2857 58.239 72.1799 58.2201 72.078C58.0842 71.355 57.8218 70.7 57.4727 70.1054C57.4236 70.0205 57.3726 69.9374 57.3179 69.8563C57.2273 69.7128 57.131 69.5769 57.031 69.441C56.997 69.3957 56.963 69.3523 56.9291 69.3088C56.7366 69.0578 56.5252 68.818 56.3081 68.5915C56.2402 68.5217 56.1722 68.4518 56.1024 68.3858C55.9627 68.2461 55.8193 68.1139 55.6739 67.9837C55.6003 67.9157 55.5267 67.8535 55.4531 67.7912C55.3776 67.7289 55.304 67.6647 55.2266 67.6043C55.153 67.542 55.0775 67.4797 55.0001 67.4212C54.3131 66.8832 53.6015 66.4094 52.9447 65.979C52.6257 65.7601 52.3218 65.5373 52.0368 65.3146C51.8235 65.1447 51.6216 64.9748 51.4309 64.8068C50.8534 64.2934 50.374 63.7705 49.9908 63.2363C49.9059 63.1173 49.8285 63.0003 49.7549 62.8795C49.5718 62.585 49.4208 62.2868 49.3 61.9866C49.1868 60.6993 49.3472 59.5138 49.8323 58.6719C50.3853 57.7092 50.9893 57.0863 51.6725 56.7937C51.967 56.7522 52.2841 56.7295 52.6314 56.7314C53.4014 56.7314 54.2583 57.0183 55.1077 57.5072C55.7079 57.9376 56.2043 58.5266 56.595 59.2571C56.6611 59.3817 56.7233 59.5063 56.7856 59.6403C57.0574 60.2387 57.2707 60.9163 57.4255 61.6733C57.4764 61.9243 57.5217 62.183 57.5633 62.4529C57.6142 62.8115 57.6538 63.1853 57.684 63.5723C57.7293 64.3556 57.7822 65.2089 57.9049 66.0734C57.9181 66.1678 57.9332 66.2641 57.9502 66.3603C57.9653 66.4566 57.9823 66.5529 57.9993 66.6491C58.0162 66.7454 58.0351 66.8398 58.0559 66.9379C58.0955 67.1286 58.1389 67.3193 58.1899 67.5099C58.2125 67.6043 58.239 67.6987 58.2654 67.7912C58.3522 68.0913 58.4541 68.3933 58.5749 68.6878C58.5957 68.7388 58.6164 68.7897 58.6391 68.8426C58.7052 68.9974 58.7769 69.1484 58.8543 69.2975C58.8977 69.3862 58.9449 69.4712 58.9939 69.5561C59.3337 70.1564 59.7697 70.7095 60.3284 71.1889C60.4076 71.2569 60.4888 71.3248 60.5737 71.389C60.7851 71.5514 61.0135 71.7061 61.2589 71.8477L61.2664 71.8515C64.3581 73.6316 67.5497 72.5122 69.624 68.9124C71.1944 66.1848 71.2265 63.6572 69.8486 61.628L69.7826 61.7412V61.745Z" fill="#FF6915"/>
<path d="M78.8687 41.3622L78.8611 41.3584C78.6139 41.2168 78.3685 41.096 78.1213 40.9941C78.0231 40.9526 77.9231 40.9148 77.8249 40.8808C77.1303 40.6373 76.4339 40.5373 75.7431 40.5411C75.6449 40.5411 75.5487 40.5448 75.4505 40.5505C75.2807 40.5581 75.1146 40.5713 74.9485 40.592C74.8918 40.5996 74.8371 40.6053 74.7824 40.6147C74.4672 40.6562 74.1557 40.7185 73.8519 40.794C73.7575 40.8167 73.6631 40.8431 73.5706 40.8695C73.38 40.9205 73.195 40.979 73.0082 41.0394C72.9138 41.0696 72.8213 41.1017 72.7307 41.1338C72.6382 41.1678 72.5457 41.1999 72.4551 41.2357C72.3646 41.2678 72.2721 41.3037 72.1834 41.3395C71.3736 41.6642 70.6073 42.0455 69.9071 42.3985C69.5579 42.5646 69.2144 42.7175 68.8784 42.8516C68.6255 42.9516 68.3783 43.0422 68.1348 43.1215C67.4025 43.365 66.7079 43.5198 66.0548 43.584C65.9095 43.5972 65.7679 43.6066 65.6283 43.6104C65.2829 43.6217 64.9488 43.6047 64.6279 43.5575C63.4558 43.012 62.5102 42.2796 62.0232 41.4396C61.4646 40.475 61.2267 39.6369 61.3192 38.8969C61.4306 38.6232 61.5684 38.3401 61.7401 38.0456C62.1252 37.3793 62.799 36.7828 63.6446 36.292C64.3203 35.9843 65.079 35.8484 65.9114 35.8767C66.051 35.8805 66.1926 35.8899 66.3379 35.9031C66.991 35.9673 67.6856 36.1202 68.4179 36.3656C68.6595 36.4468 68.9086 36.5374 69.1616 36.6355C69.4975 36.7695 69.841 36.9224 70.1902 37.0886C70.8905 37.4415 71.6568 37.821 72.4665 38.1475C72.5552 38.1834 72.6458 38.2193 72.7383 38.2514C72.8289 38.2872 72.9213 38.3193 73.0138 38.3533C73.1044 38.3854 73.1969 38.4175 73.2913 38.4477C73.4763 38.5081 73.6631 38.5666 73.8537 38.6176C73.9462 38.644 74.0425 38.6704 74.135 38.6931C74.4389 38.7686 74.7522 38.8309 75.0655 38.8724C75.1202 38.8799 75.175 38.8875 75.2316 38.895C75.3977 38.9139 75.5638 38.929 75.7336 38.9366C75.8318 38.9422 75.928 38.9441 76.0262 38.946C76.717 38.9517 77.4135 38.8497 78.108 38.6062C78.2062 38.5723 78.3043 38.5345 78.4044 38.493C78.6516 38.391 78.8989 38.2702 79.1443 38.1287L79.1518 38.1249C82.2397 36.3373 82.8663 33.0131 80.7863 29.4172C79.2084 26.6933 77.036 25.4021 74.5917 25.5796L74.6578 25.6928L74.6748 26.244C76.8378 26.6782 78.6724 27.6428 79.5501 29.1585C80.5089 30.8159 79.7369 32.9131 77.7702 34.0513L77.7645 34.0551C76.3924 34.8498 75.1013 34.8838 73.8386 34.578C73.8235 34.5742 73.8084 34.5704 73.7933 34.5667C73.7801 34.561 73.765 34.5572 73.7499 34.5534H73.748C73.7103 34.544 73.6688 34.5346 73.6291 34.5232C73.5706 34.5081 73.5121 34.4912 73.4555 34.4742C73.4423 34.4723 73.4291 34.4685 73.4196 34.4647C73.38 34.4534 73.3366 34.4402 73.2969 34.4251C73.2762 34.4194 73.2554 34.4138 73.2347 34.4062C73.2139 34.4005 73.195 34.3949 73.1743 34.3854C72.4212 34.1382 71.6756 33.7927 70.9282 33.4416C70.3393 33.1679 69.6674 32.8697 68.9521 32.5941C68.8105 32.5374 68.6652 32.4846 68.5198 32.4298H68.5161C68.4236 32.394 68.3292 32.3619 68.2367 32.3298C68.1593 32.3015 68.0819 32.2751 68.0064 32.2486C67.9706 32.2373 67.9328 32.2241 67.8951 32.2128C67.8554 32.2014 67.8139 32.1863 67.7743 32.175C67.7479 32.1656 67.7271 32.158 67.6988 32.1505C67.6252 32.124 67.5516 32.1014 67.4761 32.0787C67.4478 32.0693 67.4232 32.0618 67.3949 32.0561C67.3213 32.0315 67.2496 32.0108 67.1741 31.9881C67.0212 31.9466 66.8721 31.9032 66.7192 31.8654C66.6192 31.8409 66.5191 31.8164 66.4172 31.7918C65.1904 31.5087 63.9749 31.4086 62.9349 31.6767C62.8575 31.6955 62.782 31.7163 62.7084 31.7408C62.4574 31.8201 62.2195 31.924 61.9949 32.0523L61.9912 32.0542C59.1694 33.687 59.0751 36.7677 59.9999 39.3858C58.7976 42.1361 58.624 45.6528 61.708 47.4385C61.708 47.4385 61.7099 47.4385 61.7118 47.4404C61.9364 47.5688 62.1742 47.6726 62.4253 47.7519C62.4989 47.7764 62.5744 47.7972 62.6518 47.818C63.6917 48.0841 64.9073 47.9841 66.1341 47.7028C66.236 47.6783 66.3361 47.6537 66.4361 47.6292H66.438C66.5909 47.5914 66.74 47.5499 66.8929 47.5065C66.9683 47.4838 67.0401 47.4631 67.1137 47.4404C67.142 47.4329 67.1665 47.4234 67.1948 47.4159C67.2703 47.3932 67.344 47.3706 67.4176 47.346C67.4459 47.3385 67.4685 47.3309 67.4931 47.3196C67.5327 47.3083 67.5742 47.2932 67.6139 47.2819C67.6497 47.2705 67.6875 47.2573 67.7252 47.246C67.8007 47.2196 67.8781 47.1931 67.9555 47.1648C68.0461 47.1327 68.1404 47.0988 68.2348 47.0648H68.2386C68.3839 47.01 68.5293 46.9553 68.6708 46.9006C69.3862 46.625 70.0581 46.3267 70.647 46.053C71.3944 45.7019 72.1399 45.3546 72.893 45.1073C72.9138 45.0997 72.9327 45.0941 72.9534 45.0884C72.9742 45.079 72.995 45.0752 73.0157 45.0695C73.0572 45.0563 73.0988 45.0431 73.1384 45.0299C73.1478 45.0261 73.1611 45.0223 73.1743 45.0205C73.2309 45.0035 73.2894 44.9865 73.3479 44.9714C73.3875 44.9601 73.4272 44.9506 73.4668 44.9393H73.4687C73.4838 44.9355 73.4989 44.9317 73.5121 44.928C73.5272 44.9242 73.5423 44.9204 73.5574 44.9166C74.8201 44.6127 76.1111 44.6448 77.4833 45.4395L77.489 45.4433C79.4557 46.5815 80.2276 48.6787 79.2688 50.3361C78.3912 51.8519 76.5585 52.8165 74.3936 53.2506L74.3766 53.8018L74.3105 53.9151C76.7566 54.0925 78.9291 52.8014 80.5051 50.0775C82.5869 46.4815 81.9603 43.1574 78.8706 41.3697L78.8687 41.3622Z" fill="#FF6915"/>
<path d="M65.1828 65.2032L75.0655 48.0822L74.2916 47.6367L70.3582 54.4492L56.9913 46.7288L54.9736 50.2228L68.3424 57.9433L64.409 64.7558L65.1828 65.2032Z" fill="white"/>
</g>
<defs>
<clipPath id="clip0_56_41">
<rect width="82" height="79" fill="white"/>
</clipPath>
</defs>
</svg>
