<svg width="152.000000" height="40.000000" viewBox="0 0 152 40" fill="none" xmlns="http://www.w3.org/2000/svg" xmlns:xlink="http://www.w3.org/1999/xlink">
	<desc>
			Created with Pixso.
	</desc>
	<defs/>
	<path id="LOGO" d="M5.2 0.71L5.2 34.43L22.1 34.43L22.1 39.28L0 39.28L0 0.71L5.2 0.71Z" fill="#FFFFFF" fill-opacity="1.000000" fill-rule="nonzero"/>
	<path id="LOGO" d="M22.57 20C22.57 14.41 24.53 9.69 28.45 5.84C32.36 1.94 37.16 0 42.83 0C48.5 0 53.29 1.94 57.21 5.84C61.16 9.69 63.14 14.41 63.14 20C63.14 25.54 61.16 30.26 57.21 34.15C53.29 38.05 48.5 40 42.83 40C37.16 40 32.36 38.05 28.45 34.15C24.53 30.22 22.57 25.5 22.57 20ZM57.94 20C57.94 15.73 56.48 12.17 53.57 9.31C50.74 6.4 47.15 4.95 42.83 4.95C38.54 4.95 34.94 6.4 32.03 9.31C29.15 12.21 27.72 15.77 27.72 20C27.72 24.18 29.15 27.75 32.03 30.68C34.94 33.55 38.54 34.98 42.83 34.98C47.15 34.98 50.74 33.55 53.57 30.68C56.48 27.75 57.94 24.18 57.94 20Z" fill="#FFFFFF" fill-opacity="1.000000" fill-rule="nonzero"/>
	<path id="LOGO" d="M87.58 20.16L107.17 20.16L107.17 22.47C107.17 27.51 105.41 31.69 101.91 35.04C98.4 38.34 93.76 40 87.97 40C82.01 40 77.06 38.07 73.15 34.21C69.27 30.28 67.33 25.54 67.33 20C67.33 14.45 69.27 9.73 73.15 5.84C77.06 1.94 81.97 0 87.86 0C91.44 0 94.76 0.86 97.82 2.58C100.92 4.31 103.25 6.55 104.82 9.31L100.34 11.9C99.22 9.8 97.52 8.13 95.25 6.88C92.97 5.6 90.49 4.95 87.81 4.95C83.29 4.95 79.62 6.4 76.78 9.31C73.91 12.21 72.47 15.77 72.47 20C72.47 24.22 73.91 27.78 76.78 30.68C79.69 33.55 83.44 34.98 88.03 34.98C91.87 34.98 95.01 34.06 97.43 32.23C99.89 30.35 101.4 27.87 101.96 24.79L87.58 24.79L87.58 20.16Z" fill="#FF6915" fill-opacity="1.000000" fill-rule="nonzero"/>
	<path id="LOGO" d="M111.43 20C111.43 14.41 113.38 9.69 117.3 5.84C121.22 1.94 126.01 0 131.68 0C137.35 0 142.15 1.94 146.06 5.84C150.02 9.69 152 14.41 152 20C152 25.54 150.02 30.26 146.06 34.15C142.15 38.05 137.35 40 131.68 40C126.01 40 121.22 38.05 117.3 34.15C113.38 30.22 111.43 25.5 111.43 20ZM146.79 20C146.79 15.73 145.34 12.17 142.43 9.31C139.59 6.4 136.01 4.95 131.68 4.95C127.39 4.95 123.79 6.4 120.88 9.31C118.01 12.21 116.57 15.77 116.57 20C116.57 24.18 118.01 27.75 120.88 30.68C123.79 33.55 127.39 34.98 131.68 34.98C136.01 34.98 139.59 33.55 142.43 30.68C145.34 27.75 146.79 24.18 146.79 20Z" fill="#FF6915" fill-opacity="1.000000" fill-rule="nonzero"/>
</svg>
