<svg width="23.301758" height="27.300049" viewBox="0 0 23.3018 27.3" fill="none" xmlns="http://www.w3.org/2000/svg" xmlns:xlink="http://www.w3.org/1999/xlink">
	<desc>
			Created with Pixso.
	</desc>
	<defs/>
	<path id="shopping-bag" d="M19.78 7.87C20.19 7.87 20.6 7.96 20.98 8.13C21.35 8.31 21.68 8.56 21.95 8.87C22.22 9.19 22.42 9.56 22.54 9.96C22.65 10.36 22.68 10.78 22.61 11.2L20.81 22.97C20.66 23.99 20.14 24.93 19.36 25.6C18.58 26.27 17.59 26.65 16.56 26.65L6.73 26.65C5.7 26.65 4.71 26.27 3.93 25.6C3.15 24.93 2.64 23.99 2.48 22.97L0.68 11.2C0.62 10.78 0.64 10.36 0.76 9.96C0.87 9.56 1.07 9.19 1.34 8.87C1.61 8.56 1.94 8.31 2.32 8.13C2.69 7.96 3.1 7.87 3.51 7.87L19.78 7.87ZM7.34 12.2L7.34 4.98C7.34 3.83 7.8 2.73 8.6 1.91C9.41 1.1 10.5 0.65 11.65 0.65C12.79 0.65 13.88 1.1 14.69 1.91C15.49 2.73 15.95 3.83 15.95 4.98L15.95 12.2" stroke="#FF6915" stroke-opacity="1.000000" stroke-width="1.300000" stroke-linejoin="round" stroke-linecap="round"/>
</svg>
