<svg width="24.000000" height="24.000000" viewBox="0 0 24 24" fill="none" xmlns="http://www.w3.org/2000/svg" xmlns:xlink="http://www.w3.org/1999/xlink">
	<desc>
			Created with Pixso.
	</desc>
	<defs>
		<clipPath id="clip18_329">
			<rect id="Frame" rx="0.000000" width="23.000000" height="23.000000" transform="translate(0.500000 0.500000)" fill="white" fill-opacity="0"/>
		</clipPath>
	</defs>
	<rect id="Frame" rx="0.000000" width="23.000000" height="23.000000" transform="translate(0.500000 0.500000)" fill="#FFFFFF" fill-opacity="0"/>
	<g clip-path="url(#clip18_329)">
		<path id="Vector" d="M3.68 15.44C4.13 16.53 4.8 17.52 5.63 18.36C6.47 19.19 7.46 19.86 8.55 20.31C9.64 20.76 10.81 21 12 21C13.18 21 14.35 20.76 15.44 20.31C16.53 19.86 17.52 19.19 18.36 18.36C19.19 17.52 19.86 16.53 20.31 15.44C20.76 14.35 21 13.18 21 12C21 9.61 20.05 7.32 18.36 5.63C16.67 3.94 14.38 3 12 3C9.61 3 7.32 3.94 5.63 5.63C3.94 7.32 3 9.61 3 12C3 13.18 3.23 14.35 3.68 15.44Z" stroke="#FF0000" stroke-opacity="1.000000" stroke-width="2.000000" stroke-linejoin="round"/>
		<path id="Vector" d="M12 8L12 12" stroke="#FF0000" stroke-opacity="1.000000" stroke-width="2.000000" stroke-linejoin="round" stroke-linecap="round"/>
		<path id="Vector" d="M12 16L12 16" stroke="#FF0000" stroke-opacity="1.000000" stroke-width="2.000000" stroke-linejoin="round" stroke-linecap="round"/>
	</g>
</svg>
