<svg width="33.301758" height="39.300049" viewBox="0 0 33.3018 39.3" fill="none" xmlns="http://www.w3.org/2000/svg" xmlns:xlink="http://www.w3.org/1999/xlink">
	<desc>
			Created with Pixso.
	</desc>
	<defs/>
	<path id="shopping-bag" d="M28.47 11.2C29.07 11.2 29.67 11.33 30.22 11.59C30.76 11.84 31.25 12.21 31.64 12.67C32.03 13.14 32.32 13.68 32.49 14.26C32.65 14.85 32.69 15.46 32.6 16.06L29.98 33.27C29.75 34.77 29 36.13 27.87 37.12C26.73 38.1 25.29 38.65 23.79 38.65L9.5 38.65C8 38.65 6.56 38.1 5.42 37.12C4.29 36.13 3.54 34.77 3.31 33.27L0.69 16.06C0.6 15.46 0.64 14.85 0.81 14.26C0.97 13.68 1.26 13.14 1.65 12.67C2.04 12.21 2.53 11.84 3.08 11.59C3.62 11.33 4.22 11.2 4.82 11.2L28.47 11.2ZM10.39 17.53L10.39 6.98C10.39 5.3 11.05 3.69 12.22 2.5C13.39 1.31 14.99 0.65 16.64 0.65C18.3 0.65 19.9 1.31 21.07 2.5C22.24 3.69 22.9 5.3 22.9 6.98L22.9 17.53" stroke="#FFFFFF" stroke-opacity="1.000000" stroke-width="1.300000" stroke-linejoin="round" stroke-linecap="round"/>
</svg>
