<svg width="62.000000" height="41.000000" viewBox="0 0 62 41" fill="none" xmlns="http://www.w3.org/2000/svg" xmlns:xlink="http://www.w3.org/1999/xlink">
	<desc>
			Created with Pixso.
	</desc>
	<defs/>
	<path id="Frame 34270" d="M24 0L62 0L62 17C62 30.25 51.25 41 38 41L0 41L0 24C0 10.74 10.74 0 24 0Z" fill="#FF6915" fill-opacity="1.000000" fill-rule="evenodd"/>
	<path id="15%" d="M39.88 18.43Q40.29 18.2 40.64 17.85C41.33 17.16 41.67 16.32 41.67 15.31Q41.67 14.57 41.41 13.94Q41.15 13.3 40.62 12.76Q40.24 12.39 39.8 12.15Q39.01 11.73 38 11.73Q36.93 11.73 36.12 12.18Q35.71 12.42 35.36 12.76C34.67 13.45 34.33 14.3 34.33 15.31C34.33 16.32 34.67 17.16 35.36 17.85Q35.71 18.2 36.12 18.43Q36.93 18.88 38 18.88Q39.07 18.88 39.88 18.43ZM17.13 12L12.74 13.51L13.05 14.61L16.94 13.39L16.94 28.8L18.21 28.8L18.21 12L17.13 12ZM26.68 18.84L23.52 18.84L23.9 13.2L31.65 13.2L31.65 12L22.77 12L22.2 20.06L26.68 20.06Q28.25 20.06 29.34 20.78Q29.57 20.93 29.78 21.12C30.6 21.82 31 22.76 31 23.95C31 25.13 30.6 26.08 29.78 26.78Q29.57 26.96 29.34 27.12Q28.25 27.84 26.68 27.84Q25.11 27.84 23.98 27.12Q23.98 27.12 23.97 27.12Q23.57 26.85 23.26 26.51Q22.72 25.9 22.46 25.05L21.38 25.68C21.75 26.73 22.41 27.56 23.37 28.17C24.33 28.76 25.44 29.06 26.68 29.06Q28.38 29.06 29.69 28.35Q30.2 28.07 30.64 27.69C31.73 26.75 32.28 25.5 32.28 23.95C32.28 22.38 31.73 21.14 30.64 20.23Q30.17 19.81 29.62 19.52Q28.34 18.84 26.68 18.84ZM38 17.78C37.28 17.78 36.69 17.55 36.22 17.08C35.76 16.59 35.53 16 35.53 15.31C35.53 14.6 35.76 14.02 36.22 13.56C36.67 13.08 37.26 12.84 38 12.84Q38.75 12.84 39.3 13.16Q39.56 13.32 39.78 13.56C40.26 14.02 40.5 14.6 40.5 15.31Q40.5 15.9 40.27 16.39Q40.09 16.77 39.78 17.08C39.31 17.55 38.72 17.78 38 17.78ZM35.24 26.64L36.03 27.09L47.46 14.28L46.64 13.82L35.24 26.64ZM46.59 28.64Q47.03 28.4 47.41 28.03C48.11 27.32 48.46 26.48 48.46 25.48C48.46 24.49 48.11 23.64 47.41 22.94Q47.03 22.57 46.59 22.33Q45.8 21.91 44.79 21.91C43.72 21.91 42.84 22.25 42.15 22.94Q41.7 23.39 41.44 23.94Q41.12 24.64 41.12 25.48Q41.12 26.33 41.44 27.03Q41.7 27.57 42.15 28.03Q42.5 28.37 42.91 28.61Q43.73 29.06 44.79 29.06Q45.8 29.06 46.59 28.64ZM43.54 27.66Q43.25 27.5 43.02 27.26C42.55 26.76 42.32 26.17 42.32 25.48C42.32 24.78 42.55 24.2 43.02 23.73Q43.28 23.46 43.6 23.29Q44.12 23.01 44.79 23.01C45.51 23.01 46.1 23.25 46.57 23.73C47.05 24.2 47.29 24.78 47.29 25.48C47.29 26.19 47.05 26.78 46.57 27.26C46.1 27.72 45.51 27.96 44.79 27.96Q44.08 27.96 43.54 27.66Z" fill="#FFFFFF" fill-opacity="1.000000" fill-rule="evenodd"/>
</svg>
